<svg width="100" height="100" viewBox="0 0 100 100" fill="none" xmlns="http://www.w3.org/2000/svg">
<path fill-rule="evenodd" clip-rule="evenodd" d="M0 46.1924C1.85391 21.5077 21.585 1.80834 46.2858 0V5.01512C24.3475 6.80147 6.84727 24.2712 5.01592 46.1924H0ZM0.523695 58.1924C4.23853 80.7909 23.0664 98.3001 46.2858 100V94.9849C25.8318 93.3194 9.23565 78.021 5.59934 58.1924H0.523695ZM94.4007 58.1924C91.0394 76.521 76.6049 90.979 58.2858 94.3768V99.4542C79.3712 95.9485 96.0086 79.2879 99.4763 58.1924H94.4007ZM100 46.1924C98.262 23.051 80.8124 4.29105 58.2858 0.545818V5.62315C78.043 9.28774 93.2819 25.8172 94.9841 46.1924H100Z" fill="#84CC16"/>
<path d="M30.8 74.8399C30.4131 75.534 30.6549 76.476 31.332 76.8727C31.5738 77.0214 31.8156 77.071 32.0574 77.071C32.5411 77.071 33.0731 76.8231 33.3149 76.3273C36.7486 70.1793 43.1325 66.3617 50 66.3617C56.8675 66.3617 63.2514 70.1793 66.6851 76.3273C67.072 77.0214 67.9909 77.2693 68.668 76.8727C69.3451 76.476 69.5869 75.534 69.2 74.8399C65.2826 67.7995 57.9315 63.3868 50 63.3868C42.0685 63.3868 34.7174 67.7995 30.8 74.8399ZM50.6771 57.933C45.067 58.3297 40.3758 53.7683 40.3275 48.0666C40.3275 47.2733 39.7471 46.5792 38.9733 46.5296C38.1511 46.48 37.4257 47.1741 37.4257 48.017C37.4257 55.107 43.0841 60.9078 50 60.9078C56.7224 60.9078 62.2358 55.5036 62.5743 48.6615C62.5743 48.612 62.5743 48.5624 62.5743 48.5128V41.5716V40.0842V39.5884C62.5743 36.0186 59.9627 33.0934 56.5773 32.6967L56.3839 32.3992C54.9814 30.3665 52.6599 29.127 50.2418 29.127H46.131C39.9889 29.127 35.0076 34.2337 35.0076 40.5304C35.0076 41.3733 35.6363 42.0178 36.4584 42.0178H38.9733C39.0217 42.0178 39.0217 42.0178 39.07 42.0178C44.6317 42.0178 50.2902 42.0178 54.3526 38.2993V38.3489C54.5461 38.1505 54.7395 38.0018 54.8846 37.8035C55.4166 37.2085 56.3355 37.1094 56.9159 37.6547C57.5446 38.2001 57.5929 39.1917 57.0126 39.8363C56.7708 40.0842 56.5773 40.2825 56.3355 40.5304C55.7068 41.1749 55.9486 42.2657 56.7708 42.6128C57.2544 42.8111 57.7864 42.9102 58.3184 42.9598C59.0438 43.059 59.6242 43.6539 59.6242 44.4472V47.8187C59.6725 53.0246 55.8035 57.5364 50.6771 57.933Z" fill="#8B8888"/>
</svg>
