<svg width="100" height="100" viewBox="0 0 100 100" fill="none" xmlns="http://www.w3.org/2000/svg">
<g clip-path="url(#clip0_7_85)">
<path d="M50.4172 32.6349C50.5554 33.6318 51.409 34.3535 52.3879 34.3535C52.4789 34.3535 52.5713 34.3471 52.6642 34.3344C58.6074 33.51 64.4329 32.1081 69.9789 30.167C71.0174 29.8037 71.5646 28.6672 71.2012 27.6288C70.8379 26.5905 69.7018 26.0433 68.663 26.4069C63.3656 28.2606 57.7988 29.6001 52.1166 30.3881C51.0267 30.5393 50.266 31.5453 50.4172 32.6349Z" fill="#8B8888"/>
<path d="M76.0966 27.5652C76.3721 27.5652 76.6522 27.5076 76.9194 27.3863C78.4441 26.6937 79.9562 25.949 81.414 25.1728C82.3851 24.6556 82.7532 23.4492 82.2361 22.4781C81.719 21.507 80.513 21.1393 79.5417 21.6562C78.1574 22.3933 76.7207 23.1008 75.2717 23.759C74.2702 24.214 73.8269 25.3949 74.2819 26.3965C74.6156 27.1309 75.3395 27.5652 76.0966 27.5652Z" fill="#8B8888"/>
<path d="M93.0781 0.796875C89.3392 0.796875 86.2853 3.77695 86.1619 7.48632C76.1956 16.0507 65.3438 19.8222 57.9233 21.4772C49.6532 23.3214 43.7149 23.0198 43.6584 23.0168C43.6388 23.0156 43.6195 23.0168 43.6 23.0164C43.5813 23.0158 43.5629 23.0136 43.5442 23.0136H15.1384C14.0384 23.0136 13.1464 23.9054 13.1464 25.0056V30.7287H13.1428C5.89602 30.7285 0 36.6244 0 43.8716C0 51.1188 5.89601 57.0146 13.143 57.0146H13.1466V62.7377C13.1466 63.8379 14.0386 64.7297 15.1386 64.7297H18.5831L23.1462 89.0929C24.2432 94.9513 29.3653 99.2032 35.3257 99.2032H44.903C45.4956 99.2032 46.0574 98.9395 46.4357 98.4835C46.8141 98.0275 46.9701 97.4268 46.861 96.8445L40.846 64.7297H43.5442C43.5641 64.7297 43.5833 64.7274 43.603 64.7268C43.6207 64.7264 43.6384 64.7276 43.6562 64.7266C43.7155 64.7234 49.653 64.4216 57.9233 66.266C65.3438 67.921 76.1956 71.6925 86.1619 80.2566C86.2853 83.966 89.3392 86.9461 93.0781 86.9461C96.8948 86.9461 100 83.8409 100 80.0242V7.71879C100 3.90205 96.8948 0.796875 93.0781 0.796875ZM13.1466 53.0305H13.143C8.09263 53.0305 3.98406 48.9218 3.98406 43.8716C3.98406 38.8214 8.09263 34.7126 13.143 34.7126H13.1466V53.0305ZM40.8616 86.4542H35.8566C34.7566 86.4542 33.8645 87.3461 33.8645 88.4463C33.8645 89.5465 34.7566 90.4383 35.8566 90.4383H41.6078L42.5032 95.2192H35.3257C31.2817 95.2192 27.8064 92.3343 27.0622 88.3594L22.6363 64.7297H36.7926L37.653 69.3228H32.4701C31.3701 69.3228 30.4781 70.2146 30.4781 71.3148C30.4781 72.415 31.3701 73.3068 32.4701 73.3068H38.3992L39.2574 77.8885H34.0637C32.9637 77.8885 32.0717 78.7803 32.0717 79.8805C32.0717 80.9807 32.9637 81.8726 34.0637 81.8726H40.0034L40.8616 86.4542ZM41.5522 60.7457H17.1305V26.9973H41.5522V60.7457ZM86.1564 75.1088C76.2705 67.4576 65.9129 63.9507 58.6462 62.3457C52.7928 61.0524 48.0938 60.7676 45.5363 60.7256V27.0176C48.0938 26.9756 52.7928 26.6905 58.6462 25.3977C65.9129 23.7927 76.2705 20.2857 86.1564 12.6345V75.1088ZM96.0159 80.0242C96.0159 81.6441 94.698 82.962 93.0781 82.962C91.4582 82.962 90.1402 81.6441 90.1402 80.0242V7.71879C90.1402 6.09887 91.4582 4.78094 93.0781 4.78094C94.698 4.78094 96.0159 6.09887 96.0159 7.71879V80.0242Z" fill="#84CC16"/>
</g>
<defs>
<clipPath id="clip0_7_85">
<rect width="100" height="100" fill="white"/>
</clipPath>
</defs>
</svg>
