<svg width="100" height="100" viewBox="0 0 100 100" fill="none" xmlns="http://www.w3.org/2000/svg">
<path d="M99.3875 62.7009C93.3919 53.5437 85.3864 48.3774 76.7633 48.0429C76.3078 47.9901 75.8454 47.9542 75.3762 47.9542C74.5419 47.9542 73.7297 48.0446 72.9449 48.2084C65.1015 49.2185 57.8758 54.2688 52.3545 62.7009L51.5594 63.914L52.172 64.8489C58.374 74.3217 66.7241 79.5376 75.6884 79.5376C84.6528 79.5376 93.0029 74.32 99.2049 64.8489L100 63.6358L99.3875 62.7009ZM83.7519 59.7406C83.7519 64.3593 79.9949 68.1163 75.3762 68.1163C70.7575 68.1163 67.0005 64.3593 67.0005 59.7406C67.0005 55.7396 69.8242 52.3954 73.5796 51.5696C74.3388 51.4792 75.1015 51.4212 75.871 51.4212C75.9051 51.4212 75.9392 51.4246 75.9734 51.4246C80.3088 51.7369 83.7519 55.3267 83.7519 59.7406ZM75.6884 76.1252C68.2034 76.1252 61.1227 71.7966 55.6526 63.9071C58.3126 60.0051 61.3649 56.9646 64.663 54.8558C63.9805 56.347 63.5898 57.9986 63.5898 59.7423C63.5898 66.2429 68.879 71.5304 75.3779 71.5304C81.8768 71.5304 87.166 66.2412 87.166 59.7423C87.166 57.6676 86.6234 55.7191 85.6782 54.0232C89.4386 56.0825 92.9159 59.3243 95.9085 63.6427C90.4129 71.6993 83.2571 76.1252 75.6884 76.1252Z" fill="#84CC16"/>
<path d="M65.6799 24.3542C65.6799 28.0566 68.6914 31.0698 72.3938 31.0698C76.0962 31.0698 79.1077 28.0566 79.1077 24.3542C79.1077 20.6518 76.0962 17.642 72.3938 17.642C68.6914 17.642 65.6799 20.6518 65.6799 24.3542ZM75.6953 24.3542C75.6953 26.1747 74.2143 27.6574 72.3938 27.6574C70.5733 27.6574 69.0923 26.1764 69.0923 24.3542C69.0923 22.5354 70.5733 21.0527 72.3938 21.0527C74.2143 21.0527 75.6953 22.5354 75.6953 24.3542Z" fill="#84CC16"/>
<path d="M54.8063 5.2977H75.8795L92.8425 22.2214V44.2245H96.2549V20.8053L77.2906 1.88531H53.3953L10.2303 44.9104L10.244 44.924L0 55.1407L42.8818 98.1146L56.045 85.511L15.0845 44.9172L54.8063 5.2977ZM51.1534 85.4683L42.9364 93.339L4.82682 55.1476L12.6685 47.3264L51.1534 85.4683Z" fill="#84CC16"/>
</svg>
