<svg width="491" height="322" viewBox="0 0 491 322" fill="none" xmlns="http://www.w3.org/2000/svg">
<path d="M61.7266 9.10721L9.11084 162.527L71.8221 184.034L124.438 30.6143L61.7266 9.10721Z" fill="#8B8888"/>
<path d="M169.994 22.097L163.894 25.097C156.294 28.797 147.394 29.297 139.494 26.497L129.294 22.897C128.694 22.497 128.094 22.197 127.494 21.997L64.6939 0.497004C59.9939 -1.103 54.7939 1.397 53.1939 6.097L0.49388 159.597C-0.30612 161.897 -0.10612 164.397 0.89388 166.497C1.89388 168.597 3.79388 170.297 6.09388 171.097L68.7939 192.597C69.7939 192.897 70.7939 193.097 71.6939 193.097C75.4939 193.097 78.9939 190.697 80.2939 186.997L129.994 42.397L133.394 43.597C145.894 47.997 159.894 47.197 171.894 41.397L177.994 38.397C185.494 34.697 194.294 34.197 202.194 36.897L317.494 76.597C316.294 81.397 313.894 87.097 309.494 90.197C304.594 93.597 297.294 93.597 287.694 90.297L236.294 72.697C233.894 71.897 231.294 72.097 229.094 73.297C226.894 74.497 225.294 76.597 224.594 78.997C224.494 79.297 217.394 105.897 194.694 118.097C180.394 125.797 162.594 126.097 141.694 118.997C136.994 117.397 131.794 119.897 130.194 124.597C128.594 129.297 131.094 134.497 135.794 136.097C147.794 140.197 159.094 142.297 169.594 142.297C181.794 142.297 192.994 139.597 203.194 134.097C223.494 123.197 233.994 104.097 238.794 92.697L281.694 107.397C296.994 112.697 309.794 111.897 319.694 104.997C335.594 93.997 336.394 71.697 336.494 70.697C336.594 66.697 334.094 63.197 330.394 61.897L207.994 19.697C195.694 15.497 181.794 16.397 169.994 22.097ZM66.1939 172.497L20.5939 156.897L67.2939 20.597L112.894 36.197L66.1939 172.497Z" fill="black"/>
<path d="M349.992 39.2708L421.274 184.948L480.819 155.812L409.537 10.1346L349.992 39.2708Z" fill="#84CC16"/>
<path d="M410.194 182.797L388.694 202.597C369.194 220.497 347.194 235.597 323.394 247.197L209.294 302.997C204.294 305.497 198.194 303.397 195.694 298.297C193.194 293.297 195.294 287.197 200.394 284.697L201.794 283.997L264.194 253.497C268.694 251.297 270.594 245.897 268.394 241.397C266.194 236.897 260.794 234.997 256.294 237.197L193.894 267.697L162.494 283.097C157.494 285.597 151.394 283.497 148.894 278.397C147.694 275.997 147.494 273.197 148.394 270.697C149.294 268.097 151.094 266.097 153.494 264.897L177.194 253.297L244.994 220.097C249.494 217.897 251.394 212.497 249.194 207.997C246.994 203.497 241.594 201.597 237.094 203.797L169.194 237.097L166.594 238.397L134.194 254.297C131.794 255.497 128.994 255.697 126.494 254.797C123.894 253.897 121.894 252.097 120.694 249.697C118.194 244.697 120.294 238.597 125.394 236.097L136.594 230.597L159.494 219.397L165.894 216.297L218.494 190.497C222.994 188.297 224.894 182.897 222.694 178.397C220.494 173.897 215.094 171.997 210.594 174.197L153.594 202.097L128.694 214.297C123.694 216.697 117.594 214.697 115.094 209.597C113.894 207.197 113.694 204.397 114.594 201.897C115.494 199.297 117.294 197.297 119.694 196.097L163.194 174.797C167.694 172.597 169.594 167.197 167.394 162.697C165.194 158.197 159.794 156.297 155.294 158.497L111.794 179.797C104.994 183.097 99.8938 188.897 97.4938 195.997C95.0938 203.097 95.4938 210.797 98.7938 217.597C100.894 221.797 103.894 225.297 107.494 227.897C101.194 236.197 99.5938 247.597 104.494 257.597C107.794 264.397 113.594 269.497 120.694 271.897C123.694 272.897 126.694 273.397 129.694 273.397C129.594 277.897 130.494 282.397 132.594 286.497C137.494 296.497 147.594 302.297 157.994 302.297C162.194 302.297 166.394 301.397 170.394 299.397L176.794 296.297C177.094 299.697 177.994 302.997 179.494 306.197C184.394 316.197 194.494 321.997 204.894 321.997C209.094 321.997 213.294 321.097 217.294 319.097L331.394 263.297C356.794 250.897 380.194 234.897 400.994 215.797L426.494 192.297L484.894 163.697C489.394 161.497 491.294 156.097 489.094 151.597L417.694 6.097C416.594 3.897 414.794 2.297 412.494 1.497C410.194 0.697 407.694 0.897001 405.594 1.897L345.994 30.997C341.494 33.197 339.594 38.597 341.794 43.097L410.194 182.797ZM405.394 22.197L468.694 151.697L425.394 172.897L362.094 43.397L405.394 22.197Z" fill="black"/>
</svg>
