<svg width="150" height="100" viewBox="0 0 150 100" fill="none" xmlns="http://www.w3.org/2000/svg">
<path d="M97.5989 29.255C96.6114 27.838 96.6121 27.6489 96.6204 25.3943C96.6213 25.1681 96.6222 24.9211 96.6222 24.6499V18.0504C96.6222 10.5082 93.8385 5.75801 89.1502 3.03844C82.1911 -0.998601 67.992 -0.998601 60.9963 2.95383M97.5989 29.255L50.9971 32.7119C51.2628 30.931 51.4943 30.5902 52.2217 29.5194C52.3632 29.3111 52.5234 29.0752 52.7063 28.7957C53.3879 27.7619 53.3865 27.3747 53.3795 25.3759C53.3787 25.1547 53.3778 24.9137 53.3778 24.6499V18.0504C53.3778 10.4236 56.2103 5.66131 60.9963 2.95383M97.5989 29.255C97.6805 29.3714 97.7558 29.4778 97.8256 29.5763C98.466 30.4806 98.6398 30.7259 98.8931 32.023M97.5989 29.255L98.8931 32.023M60.9963 2.95383L61.2422 3.38916M60.9963 2.95383L61.2424 3.38902C61.2424 3.38907 61.2423 3.38911 61.2422 3.38916M61.2422 3.38916C64.6349 1.47236 69.8361 0.489595 75.086 0.500083C80.3364 0.510572 85.5264 1.51427 88.8994 3.47094C93.4053 6.08477 96.1222 10.6514 96.1222 18.0504V24.6499C96.1222 24.9095 96.1212 25.1495 96.1203 25.3721C96.1162 26.3885 96.1135 27.0455 96.2114 27.5739C96.3413 28.2747 96.6448 28.7605 97.1887 29.5409L97.1895 29.542C97.2775 29.6676 97.3567 29.7795 97.4284 29.8808C97.7097 30.2783 97.8757 30.513 98.0061 30.77C98.1589 31.0713 98.2644 31.4126 98.4022 32.1183M61.2422 3.38916C56.6414 5.99201 53.8778 10.569 53.8778 18.0504V24.6499C53.8778 24.9028 53.8787 25.1369 53.8795 25.3546C53.8828 26.2486 53.8851 26.8633 53.8217 27.3495C53.7355 28.011 53.5281 28.4576 53.1242 29.0702M98.4022 32.1183L53.1242 29.0702M98.4022 32.1183C98.7585 33.9522 98.7837 35.8525 98.8082 37.8309L98.8082 37.8326C98.8314 39.2951 98.5649 40.205 98.1187 41.0456C97.8894 41.4776 97.6089 41.8983 97.2762 42.3794C97.2162 42.4661 97.1546 42.5546 97.0916 42.6454C96.8079 43.0533 96.4939 43.5048 96.1639 44.0225L96.1631 44.0237L89.4359 54.6482L89.4354 54.649C89.1551 55.0936 88.8742 55.5192 88.6003 55.934C86.8785 58.5421 85.4376 60.7247 86.206 64.5507C86.7123 67.0912 88.8998 69.2632 91.8298 71.1329C94.7815 73.0165 98.6004 74.6644 102.567 76.1144C106.457 77.5363 110.516 78.777 114.075 79.865L114.295 79.9322C117.734 80.9836 120.662 81.8841 122.53 82.6699V99.4999L24.9791 99.488V84.7369C26.7148 84.0045 29.4559 83.0816 32.725 81.9809C33.0217 81.881 33.3227 81.7797 33.6277 81.6769C37.4787 80.3789 41.9383 78.8578 46.2226 77.1471C50.503 75.438 54.6313 73.5308 57.8128 71.4548C60.9646 69.3982 63.315 67.0951 63.8187 64.5493C64.5756 60.7255 63.135 58.5437 61.414 55.9371C61.1395 55.5214 60.8578 55.0948 60.5768 54.649L60.5761 54.6478L53.8376 44.0249M98.4022 32.1183L53.8376 44.0249M53.1242 29.0702C53.1244 29.07 53.1245 29.0698 53.1247 29.0695L52.7065 28.7959L53.1238 29.0709C53.1239 29.0707 53.1241 29.0705 53.1242 29.0702ZM53.8376 44.0249C53.8375 44.0247 53.8374 44.0245 53.8373 44.0244L53.8376 44.0249ZM98.8931 32.023C99.2593 33.9085 99.2837 35.8545 99.3082 37.8247C99.347 40.2777 98.6049 41.3449 97.5002 42.9336C97.2168 43.3411 96.9096 43.7829 96.5855 44.2912M98.8931 32.023L96.5855 44.2912M96.5855 44.2912L89.8584 54.9156L96.5855 44.2912ZM105.654 11.9225C110.898 11.664 116.367 12.5451 119.752 14.5065L119.752 14.5068C123.732 16.8058 126.12 20.8394 126.12 27.3816V33.2317C126.12 33.4595 126.119 33.6706 126.118 33.8669C126.114 34.7639 126.112 35.3524 126.2 35.8264C126.317 36.4605 126.593 36.9008 127.076 37.5909C127.168 37.7226 127.249 37.8368 127.321 37.9383C127.551 38.2643 127.687 38.4578 127.796 38.6719C127.926 38.9284 128.017 39.2221 128.13 39.8477L128.131 39.8549C128.441 41.4309 128.463 43.0341 128.486 44.7358L128.488 44.9023C128.488 44.9024 128.488 44.9024 128.488 44.9025C128.506 46.1896 128.27 46.9849 127.878 47.7202C127.677 48.0995 127.429 48.4698 127.135 48.8963C127.085 48.9684 127.034 49.0419 126.982 49.1172C126.728 49.483 126.445 49.8894 126.149 50.3568L126.149 50.357L120.178 59.7728L120.178 59.7734C119.932 60.1623 119.686 60.5348 119.446 60.8982C117.914 63.2152 116.628 65.1611 117.302 68.5858L117.302 68.5865C117.753 70.8617 119.708 72.7977 122.307 74.4564C124.927 76.1288 128.316 77.591 131.834 78.8763C135.298 80.142 138.913 81.2455 142.078 82.2116L142.234 82.2594C145.264 83.1843 147.843 83.9756 149.5 84.6653V99.4758H131.083C131.099 98.8145 131.14 97.8605 131.189 96.7216C131.199 96.483 131.21 96.2363 131.221 95.9824C131.298 94.1739 131.384 92.0213 131.419 89.9216C131.453 87.825 131.436 85.7672 131.306 84.1518C131.24 83.3458 131.145 82.6323 131.009 82.0724C130.94 81.7926 130.858 81.5366 130.756 81.3209C130.657 81.1118 130.521 80.899 130.322 80.7532L130.321 80.7527C125.254 77.0505 119.785 74.796 114.783 73.0078C113.548 72.5661 112.345 72.1542 111.186 71.7571C107.62 70.5353 104.463 69.4535 102.008 68.0773C100.395 67.1729 99.1277 66.1624 98.269 64.9387C97.4164 63.7239 96.9457 62.2701 96.9693 60.4364C97.0171 56.7274 99.0859 51.4778 104.147 43.6688L104.151 43.6633C105.389 41.6978 105.77 40.554 106.333 38.8592C106.515 38.3132 106.715 37.71 106.969 37.0037C106.97 37.0035 106.97 37.0032 106.97 37.003L106.499 36.8336L105.654 11.9225ZM44.3702 11.9225C42.8642 16.0809 42.0519 20.8581 41.8323 25.2763C41.6019 29.9132 42.0217 34.2118 43.0174 37.0131L43.0181 37.0151C43.2726 37.7217 43.4732 38.3251 43.6548 38.8713C44.2182 40.5661 44.5984 41.7099 45.8369 43.6754L45.8369 43.6754L45.8404 43.6808C50.9019 51.4899 52.9706 56.7395 53.0185 60.4485C53.0421 62.2821 52.5714 63.736 51.7188 64.9508C50.8601 66.1745 49.593 67.185 47.9796 68.0894C45.5246 69.4656 42.3674 70.5473 38.8014 71.7692C37.6424 72.1663 36.4402 72.5782 35.2048 73.0198C30.2029 74.808 24.7342 77.0626 19.6668 80.7648L19.6661 80.7653C19.4673 80.9111 19.3308 81.1239 19.2319 81.333C19.1299 81.5487 19.0476 81.8047 18.9792 82.0845C18.8424 82.6444 18.7474 83.3579 18.6822 84.1639C18.5514 85.7793 18.5346 87.837 18.569 89.9337C18.6035 92.0334 18.6896 94.1859 18.7669 95.9945C18.7777 96.249 18.7884 96.4964 18.7987 96.7356C18.8479 97.8736 18.8891 98.8269 18.9051 99.4879H0.5V84.6774C2.15648 83.9876 4.73506 83.1964 7.76446 82.2713L7.91798 82.2244C11.0834 81.2578 14.6989 80.1537 18.1647 78.8868C21.6829 77.6008 25.0737 76.1375 27.698 74.4635C30.301 72.803 32.2612 70.8653 32.7219 68.5884L32.7224 68.5858C33.3963 65.1611 32.1101 63.2153 30.5786 60.8982C30.3384 60.5348 30.0921 60.1623 29.8464 59.7734L29.846 59.7728L23.8758 50.357L23.8757 50.3568C23.579 49.8895 23.2968 49.4831 23.0429 49.1174C22.9906 49.042 22.9395 48.9684 22.8897 48.8964C22.5949 48.4698 22.3479 48.0995 22.146 47.7202C21.7546 46.9849 21.5188 46.1895 21.5361 44.9023C21.5369 44.8466 21.5376 44.7911 21.5384 44.7356C21.5618 43.034 21.5838 41.4308 21.8931 39.8549L21.8936 39.8522C22.0133 39.2241 22.1038 38.9287 22.2337 38.6702C22.3449 38.449 22.4863 38.2481 22.7307 37.9008C22.7954 37.8089 22.8673 37.7067 22.9478 37.5912C22.9479 37.5911 22.948 37.5909 22.9481 37.5908L22.5378 37.305L44.3702 11.9225Z" fill="#84CC16" stroke="#8B8888"/>
</svg>
