<svg width="176" height="144" viewBox="0 0 176 144" fill="none" xmlns="http://www.w3.org/2000/svg">
<path d="M88.1062 70.6642L104.07 70.6642L89.052 102.759V81.9149V79.4149H86.552H69.1886L88.455 43.6895L85.6232 67.8734L85.2964 70.6642L88.1062 70.6642Z" fill="#8B8888" stroke="#8B8888" stroke-width="5"/>
<path d="M155.223 72C155.223 108.806 124.037 139 85.1182 139C46.1996 139 15.0139 108.806 15.0139 72C15.0139 35.1937 46.1996 5 85.1182 5C124.037 5 155.223 35.1937 155.223 72Z" stroke="#84CC16" stroke-width="10"/>
<path d="M157.659 61.2954L132.991 49.3051L164.758 35.6694L157.659 61.2954Z" fill="#84CC16"/>
<path d="M17.5815 97.6497L43.2177 107.599L12.7657 123.759L17.5815 97.6497Z" fill="#84CC16"/>
</svg>
