<svg width="100" height="100" viewBox="0 0 100 100" fill="none" xmlns="http://www.w3.org/2000/svg">
<rect x="13.7493" y="99.6875" width="52.1978" height="5.65105" rx="2.82552" transform="rotate(-90 13.7493 99.6875)" fill="#84CC16"/>
<path d="M2.26637 49.6269C1.11644 48.6033 1.13976 46.9763 2.31854 45.9875L44.6318 10.4927C45.1221 10.0814 45.7774 9.84773 46.4636 9.83939L49.5367 9.80204C52.252 9.76903 52.8104 13.098 50.1914 13.705V13.705C49.8163 13.7919 49.4732 13.9592 49.1942 14.1913L6.50439 49.6981C5.31717 50.6856 3.41975 50.6537 2.26637 49.6269V49.6269Z" fill="#84CC16"/>
<path d="M96.9309 49.4711C98.5114 48.5531 98.7149 46.6196 97.3505 45.4848L55.114 10.355C54.6764 9.99103 54.0903 9.7889 53.4802 9.79155L49.5436 9.80861C47.64 9.81686 47.1947 12.1093 48.9947 12.6347V12.6347C49.2293 12.7031 49.4431 12.8153 49.621 12.9633L93.1825 49.1952C94.1952 50.0374 95.7579 50.1525 96.9309 49.4711V49.4711Z" fill="#84CC16"/>
<rect x="79.8665" y="99.6875" width="52.1978" height="5.65105" rx="2.82552" transform="rotate(-90 79.8665 99.6875)" fill="#84CC16"/>
<rect x="14.1276" y="94.5056" width="71.2032" height="5.49451" rx="2.74725" fill="#84CC16"/>
</svg>
