<svg width="125" height="100" viewBox="0 0 125 100" fill="none" xmlns="http://www.w3.org/2000/svg">
<path d="M19 2.5H106C115.113 2.5 122.5 9.8873 122.5 19V61.4533C122.5 70.566 115.113 77.9533 106 77.9533H83.8741C75.7303 77.9533 68.2855 82.5545 64.6437 89.8386L62.2533 94.6197L56.8968 84.601C54.7087 80.5085 50.445 77.9533 45.8042 77.9533H19C9.88731 77.9533 2.5 70.566 2.5 61.4533V19C2.5 9.88728 9.8873 2.5 19 2.5Z" stroke="#84CC16" stroke-width="5"/>
<path d="M62.5656 20.0558L66.4239 32.4749L66.7517 33.5299H67.8564L80.5244 33.5299L70.2188 41.3606L69.382 41.9964L69.6938 43L73.5948 55.5565L63.4731 47.8655L62.5656 47.1759L61.6581 47.8655L51.5363 55.5565L55.4373 43L55.7491 41.9964L54.9124 41.3606L44.6068 33.5299L57.2748 33.5299H58.3795L58.7072 32.4749L62.5656 20.0558Z" stroke="#8B8888" stroke-width="3"/>
</svg>
