<svg width="100" height="100" viewBox="0 0 100 100" fill="none" xmlns="http://www.w3.org/2000/svg">
<g clip-path="url(#clip0_18_63)">
<path d="M12.5971 19.0011L1.85938 50.3105L14.6573 54.6996L25.395 23.3902L12.5971 19.0011Z" fill="#8B8888"/>
<path d="M34.6921 21.652L33.4472 22.2642C31.8963 23.0193 30.08 23.1214 28.4678 22.5499L26.3862 21.8153C26.2637 21.7336 26.1413 21.6724 26.0188 21.6316L13.2028 17.2439C12.2436 16.9174 11.1824 17.4276 10.8559 18.3868L0.100984 49.7127C-0.0622779 50.182 -0.0214624 50.6922 0.182615 51.1208C0.386693 51.5494 0.77444 51.8963 1.24382 52.0596L14.0395 56.4472C14.2436 56.5084 14.4476 56.5493 14.6313 56.5493C15.4068 56.5493 16.1211 56.0595 16.3864 55.3044L26.529 25.7948L27.2229 26.0397C29.7738 26.9376 32.6309 26.7744 35.0799 25.5907L36.3247 24.9785C37.8553 24.2234 39.6512 24.1213 41.2634 24.6724L64.7935 32.7742C64.5486 33.7538 64.0589 34.917 63.1609 35.5497C62.1609 36.2435 60.6712 36.2435 58.712 35.5701L48.2225 31.9783C47.7327 31.8151 47.2021 31.8559 46.7531 32.1008C46.3041 32.3457 45.9776 32.7742 45.8347 33.264C45.8143 33.3252 44.3654 38.7537 39.7328 41.2434C36.8145 42.8148 33.1819 42.8761 28.9167 41.4271C27.9576 41.1006 26.8964 41.6108 26.5698 42.5699C26.2433 43.5291 26.7535 44.5903 27.7127 44.9168C30.1616 45.7536 32.4677 46.1821 34.6105 46.1821C37.1002 46.1821 39.3859 45.6311 41.4675 44.5087C45.6103 42.2842 47.7531 38.3864 48.7326 36.0599L57.4876 39.0598C60.61 40.1414 63.2221 39.9782 65.2425 38.57C68.4873 36.3252 68.6506 31.7743 68.671 31.5702C68.6914 30.7539 68.1812 30.0396 67.4261 29.7743L42.4471 21.1622C39.9369 20.3051 37.1002 20.4888 34.6921 21.652ZM13.5089 52.3453L4.20294 49.1617L13.7334 21.3459L23.0393 24.5295L13.5089 52.3453Z" fill="black"/>
<path d="M71.4254 25.1568L85.9724 54.8862L98.1243 48.9402L83.5773 19.2107L71.4254 25.1568Z" fill="#84CC16"/>
<path d="M83.7113 54.4473L79.3236 58.488C75.3441 62.141 70.8544 65.2225 65.9974 67.5898L42.7121 78.9774C41.6918 79.4876 40.4469 79.059 39.9367 78.0182C39.4265 76.9978 39.8551 75.7529 40.8959 75.2427L41.1816 75.0999L53.916 68.8755C54.8343 68.4266 55.2221 67.3245 54.7731 66.4062C54.3242 65.4878 53.2221 65.1001 52.3038 65.5491L39.5693 71.7734L33.1613 74.9162C32.1409 75.4264 30.8961 74.9979 30.3859 73.9571C30.141 73.4673 30.1002 72.8959 30.2838 72.3857C30.4675 71.8551 30.8348 71.4469 31.3246 71.202L36.1613 68.8347L49.9977 62.0593C50.9161 61.6104 51.3038 60.5084 50.8548 59.59C50.4059 58.6717 49.3038 58.2839 48.3855 58.7329L34.5286 65.5287L33.998 65.794L27.3859 69.0388C26.8961 69.2837 26.3247 69.3245 25.8145 69.1408C25.2839 68.9572 24.8758 68.5898 24.6309 68.1C24.1207 67.0796 24.5492 65.8348 25.59 65.3246L27.8757 64.2022L32.5491 61.9165L33.8552 61.2838L44.5897 56.0186C45.508 55.5697 45.8958 54.4677 45.4468 53.5493C44.9978 52.631 43.8958 52.2432 42.9774 52.6922L31.345 58.3859L26.2635 60.8757C25.2431 61.3655 23.9982 60.9573 23.488 59.9165C23.2432 59.4267 23.2023 58.8553 23.386 58.3451C23.5697 57.8145 23.937 57.4064 24.4268 57.1615L33.3042 52.8146C34.2225 52.3657 34.6103 51.2636 34.1613 50.3453C33.7123 49.4269 32.6103 49.0392 31.692 49.4882L22.8146 53.835C21.4269 54.5085 20.3861 55.6921 19.8963 57.1411C19.4065 58.59 19.4881 60.1614 20.1616 61.5491C20.5901 62.4063 21.2024 63.1205 21.9371 63.6511C20.6514 65.345 20.3248 67.6715 21.3248 69.7122C21.9983 71.1 23.1819 72.1408 24.6309 72.6306C25.2431 72.8346 25.8553 72.9367 26.4676 72.9367C26.4472 73.855 26.6308 74.7734 27.0594 75.6101C28.0594 77.6509 30.1206 78.8345 32.243 78.8345C33.1001 78.8345 33.9572 78.6508 34.7735 78.2427L36.0796 77.61C36.1409 78.3039 36.3245 78.9774 36.6306 79.6304C37.6306 81.6712 39.6918 82.8548 41.8142 82.8548C42.6713 82.8548 43.5285 82.6712 44.3448 82.263L67.63 70.8755C72.8136 68.3449 77.589 65.0797 81.8338 61.1818L87.0378 56.386L98.9559 50.5494C99.8742 50.1004 100.262 48.9984 99.813 48.08L85.2419 18.3868C85.0174 17.9378 84.6501 17.6113 84.1807 17.448C83.7113 17.2847 83.2011 17.3256 82.7725 17.5296L70.6095 23.4683C69.6912 23.9173 69.3034 25.0193 69.7524 25.9376L83.7113 54.4473ZM82.7317 21.6724L95.6498 48.1004L86.8133 52.4269L73.8952 25.9989L82.7317 21.6724Z" fill="black"/>
</g>
<defs>
<clipPath id="clip0_18_63">
<rect width="100" height="100" fill="white"/>
</clipPath>
</defs>
</svg>
