<svg width="153" height="151" viewBox="0 0 153 151" fill="none" xmlns="http://www.w3.org/2000/svg">
<rect width="147.962" height="7" rx="3.5" transform="matrix(-0.00620098 0.999981 -0.999925 -0.0122805 7.91699 0.0859375)" fill="#84CC16"/>
<rect width="149.394" height="7" rx="3.5" transform="matrix(-0.00620098 0.999981 -0.999925 -0.0122805 153 0.26416)" fill="#84CC16"/>
<rect x="1.99988" y="143.025" width="150" height="7" rx="3.5" fill="#84CC16"/>
<rect x="2.99988" y="0.0245361" width="149.778" height="7" rx="3.5" fill="#84CC16"/>
<rect x="36.5" y="29.5" width="82" height="21" rx="7.5" stroke="#84CC16" stroke-width="5"/>
<rect x="39" y="107" width="76" height="18" fill="#84CC16"/>
<path d="M55.7678 62.2322C54.7915 61.2559 53.2085 61.2559 52.2322 62.2322L36.3223 78.1421C35.346 79.1184 35.346 80.7014 36.3223 81.6777C37.2986 82.654 38.8816 82.654 39.8579 81.6777L54 67.5355L68.1421 81.6777C69.1184 82.654 70.7014 82.654 71.6777 81.6777C72.654 80.7014 72.654 79.1184 71.6777 78.1421L55.7678 62.2322ZM56.5 96V64H51.5V96H56.5Z" fill="#84CC16"/>
<path d="M101.768 62.2322C100.791 61.2559 99.2085 61.2559 98.2322 62.2322L82.3223 78.1421C81.346 79.1184 81.346 80.7014 82.3223 81.6777C83.2986 82.654 84.8816 82.654 85.8579 81.6777L100 67.5355L114.142 81.6777C115.118 82.654 116.701 82.654 117.678 81.6777C118.654 80.7014 118.654 79.1184 117.678 78.1421L101.768 62.2322ZM102.5 96V64H97.5V96H102.5Z" fill="#84CC16"/>
</svg>
