<svg width="100" height="100" viewBox="0 0 100 100" fill="none" xmlns="http://www.w3.org/2000/svg">
<path fill-rule="evenodd" clip-rule="evenodd" d="M59 94.0998C56.092 94.6901 53.0822 95 50 95C25.1472 95 5 74.8528 5 50C5 25.1472 25.1472 5 50 5C74.8528 5 95 25.1472 95 50C95 53.7947 94.5303 57.4797 93.6459 61H98.7861C99.5807 57.4606 100 53.7793 100 50C100 22.3858 77.6142 0 50 0C22.3858 0 0 22.3858 0 50C0 77.6142 22.3858 100 50 100C53.0726 100 56.0805 99.7228 59 99.1922V94.0998Z" fill="#84CC16"/>
<path d="M38.1448 32.7011C36.7652 32.6463 35.6023 33.7202 35.5474 35.0998L34.6537 57.5821C34.5989 58.9617 35.6728 60.1245 37.0524 60.1794C38.432 60.2342 39.5949 59.1603 39.6498 57.7807L40.4442 37.7965L60.4284 38.5909C61.808 38.6457 62.9709 37.5718 63.0257 36.1922C63.0806 34.8126 62.0066 33.6497 60.627 33.5948L38.1448 32.7011ZM86.3366 83.8038L39.8821 33.503L36.2089 36.8953L82.6634 87.1962L86.3366 83.8038Z" fill="#8B8888"/>
</svg>
